<?xml version="1.0" encoding="UTF-8"?>
<svg width="36px" height="36px" viewBox="0 0 36 36" version="1.1" xmlns="http://www.w3.org/2000/svg" xmlns:xlink="http://www.w3.org/1999/xlink">
    <!-- Generator: Sketch 47.1 (45422) - http://www.bohemiancoding.com/sketch -->
    <title>icon-7@2x</title>
    <desc>Created with Sketch.</desc>
    <defs></defs>
    <g id="B-发现" stroke="none" stroke-width="1" fill="none" fill-rule="evenodd" opacity="0.800000012">
        <g id="B-发现-02" transform="translate(-230.000000, -244.000000)">
            <g id="icon-7" transform="translate(230.000000, 244.000000)">
                <rect id="Rectangle-3-Copy-2" fill="#8FCA52" x="0" y="0" width="36" height="36" rx="4"></rect>
                <g id="andriod" transform="translate(9.000000, 7.000000)" fill-rule="nonzero" fill="#FFFFFF">
                    <path d="M17.8089655,15.5790301 L17.5463975,15.5790301 C16.8946026,15.5790301 16.355363,14.8659169 16.355363,13.991778 L16.355363,8.90797041 C16.355363,8.03383155 16.8899319,7.32071827 17.5463975,7.32071827 L17.8089655,7.32071827 C18.4654311,7.32071827 19,8.03383155 19,8.90797041 L19,13.991778 C18.9953064,14.8659169 18.4607604,15.5790301 17.8089655,15.5790301 L17.8089655,15.5790301 Z M14.3156305,18.5142874 L13.3121805,18.5142874 L13.3121805,21.4127479 C13.3121805,22.2822815 12.7776345,23 12.1211689,23 L11.8585781,23 C11.2021124,23 10.6675664,22.2868867 10.6675664,21.4127479 L10.6675664,18.5142874 L8.4308851,18.5142874 L8.4308851,21.3805338 C8.4308851,22.2500899 7.8963391,22.9632031 7.23987347,22.9632031 L6.97728264,22.9632031 C6.32081702,22.9632031 5.78627101,22.2500899 5.78627101,21.3805338 L5.78627101,18.5142874 L4.69373381,18.5142874 C4.02318732,18.5142874 3.47927698,17.9438013 3.47927698,17.2490864 L3.47927698,7.21488798 L15.5301103,7.21488798 L15.5301103,17.2490864 C15.5301103,17.9438013 14.9814834,18.5142874 14.3156305,18.5142874 L14.3156305,18.5142874 Z M6.69594023,1.96086684 L5.59870941,0.304603735 C5.551819,0.230987549 5.56589986,0.125157261 5.64090619,0.074567193 L5.6690679,0.056146298 C5.73938061,0.00555623031 5.83785503,0.0239546608 5.88943906,0.0975708472 L7.02417304,1.80902924 C7.76974875,1.49158331 8.59500151,1.31676452 9.46247394,1.31676452 C10.3768368,1.31676452 11.2443092,1.50998174 12.0180008,1.86422453 L13.2043417,0.0699619692 C13.2559258,-0.00365421718 13.3543773,-0.0220526477 13.4247129,0.0285598845 L13.4528746,0.046958315 C13.5231873,0.0975708472 13.5419389,0.203378671 13.4950485,0.276994857 L12.3415629,2.02066735 C14.0061722,2.89480621 15.2018774,4.50045679 15.4456938,6.39136166 L3.47458336,6.39136166 C3.72778695,4.45447194 4.9703826,2.8165848 6.69594023,1.96086684 Z M12.0836657,4.51427246 C12.4118985,4.51427246 12.679183,4.23822861 12.679183,3.89317379 C12.679183,3.55270174 12.4118985,3.27207513 12.0836657,3.27207513 C11.7554329,3.27207513 11.4881485,3.54811898 11.4881485,3.89317379 C11.4881485,4.23822861 11.7554329,4.51427246 12.0836657,4.51427246 Z M6.93977948,4.51427246 C7.26801229,4.51427246 7.53529674,4.23822861 7.53529674,3.89317379 C7.53529674,3.55270174 7.26801229,3.27207513 6.93977948,3.27207513 C6.61154667,3.27207513 6.34426222,3.54811898 6.34426222,3.89317379 C6.34426222,4.23822861 6.60687594,4.51427246 6.93977948,4.51427246 Z M1.45360246,15.546816 L1.19101163,15.546816 C0.534546002,15.546816 0,14.8337028 0,13.9641691 L0,8.87575631 C0,8.00622267 0.534546002,7.28850417 1.19103452,7.28850417 L1.45360246,7.28850417 C2.11006808,7.28850417 2.64463698,8.00161745 2.64463698,8.87575631 L2.64463698,13.9595639 C2.64463698,14.8337028 2.11006808,15.546816 1.45360246,15.546816 L1.45360246,15.546816 Z" id="Shape"></path>
                </g>
            </g>
        </g>
    </g>
</svg>