<?xml version="1.0" encoding="UTF-8"?>
<svg width="36px" height="36px" viewBox="0 0 36 36" version="1.1" xmlns="http://www.w3.org/2000/svg" xmlns:xlink="http://www.w3.org/1999/xlink">
    <!-- Generator: Sketch 47.1 (45422) - http://www.bohemiancoding.com/sketch -->
    <title>icon-5@2x</title>
    <desc>Created with Sketch.</desc>
    <defs></defs>
    <g id="B-发现" stroke="none" stroke-width="1" fill="none" fill-rule="evenodd" opacity="0.800000012">
        <g id="B-发现-02" transform="translate(-230.000000, -300.000000)">
            <g id="icon-5" transform="translate(230.000000, 300.000000)">
                <rect id="Rectangle-3-Copy-3" fill="#595959" x="0" y="0" width="36" height="36" rx="4"></rect>
                <g id="ios" transform="translate(8.000000, 6.000000)" fill-rule="nonzero" fill="#FFFFFF">
                    <path d="M16.7059792,12.2218247 C16.739432,15.7002956 19.9633578,16.8554997 20,16.8731329 C19.9713191,16.9516232 19.4839216,18.5218147 18.2988429,20.1448802 C17.2746219,21.5452315 16.2153923,22.9407833 14.5413084,22.968016 C12.89588,22.9984573 12.3670689,22.054751 10.4859159,22.054751 C8.60554111,22.054751 8.01778605,22.9407829 6.46157727,22.9984573 C4.84801926,23.0561317 3.61754589,21.4859403 2.58458597,20.0887971 C0.474061852,17.2336286 -1.13790104,12.0183606 1.02836452,8.49984886 C2.10194766,6.75180954 4.02372347,5.6462717 6.10955994,5.61583041 C7.69603172,5.58858456 9.19410006,6.61722346 10.1617757,6.61722346 C11.1341974,6.61722346 12.9532423,5.38350361 14.8646583,5.56295597 C15.665862,5.59498863 17.9133601,5.86417356 19.3564909,7.84133105 C19.2434002,7.91182593 16.6741342,9.30896907 16.7059792,12.2218247 L16.7059792,12.2218247 L16.7059792,12.2218247 L16.7059792,12.2218247 Z M9.96902134,5.30018783 C9.7826716,3.97994362 10.477955,2.60522126 11.2727791,1.74322661 C12.1599999,0.769066253 13.654088,0.0480617302 14.8901241,0 C15.0494259,1.3474769 14.4696317,2.69975379 13.612674,3.67230966 C12.7541341,4.64327454 11.3476455,5.40112443 9.96902134,5.30018783 L9.96902134,5.30018783 L9.96902134,5.30018783 Z" id="Shape"></path>
                </g>
            </g>
        </g>
    </g>
</svg>