<?xml version="1.0" encoding="UTF-8"?>
<svg width="36px" height="36px" viewBox="0 0 36 36" version="1.1" xmlns="http://www.w3.org/2000/svg" xmlns:xlink="http://www.w3.org/1999/xlink">
    <!-- Generator: Sketch 47.1 (45422) - http://www.bohemiancoding.com/sketch -->
    <title>icon-16@2x</title>
    <desc>Created with Sketch.</desc>
    <defs>
        <polygon id="path-1" points="0 23 0 0 20 0 20 23"></polygon>
    </defs>
    <g id="B-发现" stroke="none" stroke-width="1" fill="none" fill-rule="evenodd" opacity="0.800000012">
        <g id="B-发现-02" transform="translate(-230.000000, -747.000000)">
            <g id="icon-16" transform="translate(230.000000, 747.000000)">
                <rect id="Rectangle-3-Copy-11" fill="#C18ADE" x="0" y="0" width="36" height="36" rx="4"></rect>
                <g id="Page-1" transform="translate(7.000000, 7.000000)">
                    <mask id="mask-2" fill="white">
                        <use xlink:href="#path-1"></use>
                    </mask>
                    <g id="Clip-2"></g>
                    <path d="M14.6755511,6.66968238 C13.9466138,6.66968238 13.3204775,6.23377001 13.0288686,5.60677043 L11.6637862,6.4047699 C11.8361391,6.76685701 11.9387705,7.16602844 11.9387705,7.59524503 C11.9387705,8.16524465 11.7665873,8.69506961 11.4749784,9.13424402 L14.0360134,10.6298063 C14.2183749,10.4488486 14.4735115,10.3448065 14.7517189,10.3683275 C15.1990561,10.4052402 15.556824,10.7774568 15.5866804,11.2300228 C15.61976,11.7665435 15.1990561,12.2093233 14.6755511,12.2093233 C14.1718939,12.2093233 13.7644219,11.7967603 13.7644219,11.2871944 C13.7644219,11.1965439 13.7908855,11.1160228 13.814126,11.0322398 L11.1833695,9.49306909 C10.6831051,10.0263278 9.97740826,10.3648938 9.18875809,10.3616318 C7.71442843,10.354936 6.49845847,9.14780726 6.46537893,7.65550704 C6.43212975,6.09624902 7.66794744,4.82199082 9.20198991,4.82199082 C10.1265206,4.82199082 10.9414648,5.29155376 11.4385061,6.00233643 L12.8863721,5.15729482 C12.8665244,5.04672862 12.8532926,4.93599074 12.8532926,4.82199082 C12.8532926,3.77247042 13.7179409,2.93086254 14.7617276,2.97773299 C15.6960974,3.0213414 16.4547215,3.78929571 16.4978097,4.73477401 C16.5442907,5.79442392 15.7093292,6.66968238 14.6755511,6.66968238 M20,8.02772366 C20,3.59477475 15.9710817,0 11.0011776,0 C8.50630173,0 6.24993782,0.905475311 4.61987986,2.37082074 C3.61256546,3.14547083 2.79422853,4.14125331 2.33043641,5.37533684 C2.05528249,6.10637853 1.81677053,7.08550741 1.80693148,7.87011533 C1.79030689,8.85267794 2.26733083,9.81171948 1.8500197,10.7673273 C1.55841083,11.4346732 0.56110511,12.2829769 0.474928667,12.3634979 C0.388752224,12.444019 -1.05249789,13.449931 1.55179493,13.5740604 C1.62456992,13.5773224 1.95604387,15.14671 2.03543477,15.505535 C1.9825075,15.5759265 1.9526511,15.6530138 1.9526511,15.7771433 C1.9526511,16.0789684 2.32704364,16.3236218 2.79083575,16.3236218 L3.07260558,16.3236218 C2.46292421,16.4075766 2.02220295,16.648968 2.02220295,16.98101 C2.02220295,17.2122719 2.31041905,17.514097 2.7445244,17.6952264 C2.7445244,17.6952264 2.54248474,19.4388758 3.33435804,19.824484 C3.47006898,19.8849177 3.78152557,20.0524839 4.51707883,19.9149629 C5.25263209,19.7776136 7.42281956,19.2678759 7.79398897,19.5092673 C8.16498873,19.7506588 7.97940403,20.8372635 8.14514101,21.7123502 C8.28424472,22.4602172 8.92700563,23 9.67918348,23 L16.2891542,23 C17.45542,23 18.3533175,21.9606091 18.1975892,20.7902213 C17.9125962,18.6374426 17.5215791,15.6899265 17.5215791,15.6899265 C19.3009191,13.1213227 19.9170467,10.8210652 19.9502959,8.89954839 C19.9801523,8.61798231 20,8.32611503 20,8.02772366" id="Fill-1" fill="#FFFFFF" mask="url(#mask-2)"></path>
                </g>
            </g>
        </g>
    </g>
</svg>