<?xml version="1.0" encoding="UTF-8"?>
<svg width="36px" height="36px" viewBox="0 0 36 36" version="1.1" xmlns="http://www.w3.org/2000/svg" xmlns:xlink="http://www.w3.org/1999/xlink">
    <!-- Generator: Sketch 47.1 (45422) - http://www.bohemiancoding.com/sketch -->
    <title>icon-4@2x</title>
    <desc>Created with Sketch.</desc>
    <defs></defs>
    <g id="B-发现" stroke="none" stroke-width="1" fill="none" fill-rule="evenodd" opacity="0.800000012">
        <g id="B-发现-02" transform="translate(-230.000000, -523.000000)">
            <g id="icon-4" transform="translate(230.000000, 523.000000)">
                <rect id="Rectangle-3-Copy-5" fill="#79CCA4" x="0" y="0" width="36" height="36" rx="4"></rect>
                <path d="M9.52517832,25.6283499 C9.38292137,27.5445777 7.82125203,28.4501035 7.57499521,28.2534376 C7.57499521,28.2534376 11.5399899,30.4981293 14.3621004,27.2029901 C14.7632427,26.7432904 15.1924279,26.1133593 15.4006133,25.4046869 L12.2165461,22.2550317 C12.2167319,22.2552192 9.70810664,23.0823787 9.52517832,25.6283499 L9.52517832,25.6283499 Z M15.3233563,17.1242809 L10.4749199,15.7594303 L18.6636089,11.2711717 L19.679279,13.0820359 C20.3927923,12.4386064 21.0427915,11.8748556 21.6547192,11.3755978 L19.7567218,8.00284199 L4,16.6385216 L13.1789163,19.2234886 L15.3233563,17.1242809 L15.3233563,17.1242809 Z M21.5379051,21.5862924 L28.5181529,23.5548269 L25.2174573,17.6882192 C24.011323,19.0070306 22.7846529,20.3065501 21.5379051,21.5862924 L21.5379051,21.5862924 Z M12.7499169,20.7857551 C12.4756172,21.0478514 12.4249173,21.4286222 12.6331027,21.6252882 L16.1295409,25.0900964 C16.3377263,25.2869498 16.7137973,25.2344556 16.9879112,24.9721718 L17.8067244,24.1583234 L13.5548015,19.9983413 L12.7499169,20.7857551 Z M29.701337,8.30449647 C28.6221528,7.24148784 25.3214572,8.6850798 16.5334689,17.0845353 L14.4258003,19.1318111 L18.6777232,23.2919807 L20.7319062,21.2317688 C29.2467091,12.5700295 30.767707,9.36769258 29.701337,8.30449647 L29.701337,8.30449647 Z" id="Shape" fill="#FFFFFF" fill-rule="nonzero"></path>
            </g>
        </g>
    </g>
</svg>