<?xml version="1.0" encoding="UTF-8"?>
<svg width="36px" height="36px" viewBox="0 0 36 36" version="1.1" xmlns="http://www.w3.org/2000/svg" xmlns:xlink="http://www.w3.org/1999/xlink">
    <!-- Generator: Sketch 47.1 (45422) - http://www.bohemiancoding.com/sketch -->
    <title>icon-3@2x</title>
    <desc>Created with Sketch.</desc>
    <defs></defs>
    <g id="B-发现" stroke="none" stroke-width="1" fill="none" fill-rule="evenodd">
        <g id="B-发现-02" transform="translate(-230.000000, -579.000000)">
            <g id="icon-3" transform="translate(230.000000, 579.000000)">
                <rect id="Rectangle-3-Copy-7" fill="#48C9EC" opacity="0.800000012" x="0" y="0" width="36" height="36" rx="4"></rect>
                <g id="运维" transform="translate(7.000000, 6.000000)" fill-rule="nonzero" fill="#FFFFFF">
                    <path d="M22.5617556,3.62033675 C23.4250492,5.74855985 23.013817,8.28901544 21.3199034,10.0192977 C19.454594,11.9249142 16.63541,12.2218423 14.4451543,10.9595528 L12.86184,12.7268041 L13.9913544,13.8853706 L14.6663786,13.195436 C15.0118545,12.8427221 15.5713195,12.8427221 15.9167699,13.195436 L21.3939175,18.847168 C21.7390611,19.1998819 21.7390611,19.7712652 21.3939175,20.1240047 L18.8934928,22.6782917 C18.5483492,23.0310056 17.9888842,23.0310056 17.6434083,22.6782917 L12.1663117,17.0265853 C11.8211682,16.6741781 11.8211682,16.1024881 12.1663117,15.749723 L12.7829172,15.1199461 L11.7059413,14.0168074 L4.13078082,22.4708716 C3.4403658,23.1763761 2.32095007,23.1763761 1.63050948,22.4708716 L1.00544164,21.8321464 C0.31489879,21.1267186 0.31489879,19.9833384 1.00544164,19.2778083 L9.63449173,11.8949248 L3.90306274,6.02470244 L2.09371775,6.02403772 L0,2.58331279 L1.68647387,0.857990454 L5.13100696,3.01101295 L5.15445116,4.82188044 L10.9515853,10.7677026 L12.6385449,9.32442872 C10.9898578,7.02805546 11.1616115,3.79439274 13.1940471,1.71829952 C14.8797029,-0.00369919321 17.3520815,-0.431066988 19.4294369,0.434611017 L15.7146691,4.17681482 L18.8396248,7.36954575 L22.5617812,3.62031119 L22.5617556,3.62033675 Z M3.0807006,20.1781543 C2.73519908,19.825466 2.1755807,19.825466 1.8302837,20.1781543 C1.4853702,20.5308938 1.4853702,21.1029418 1.8302837,21.4556558 C2.1755807,21.8083441 2.73519908,21.8083441 3.08072617,21.4556558 C3.4258442,21.1029418 3.4258442,20.5308938 3.08072617,20.1781543 L3.0807006,20.1781543 Z" id="Shape"></path>
                </g>
            </g>
        </g>
    </g>
</svg>