<?xml version="1.0" encoding="UTF-8"?>
<svg width="36px" height="36px" viewBox="0 0 36 36" version="1.1" xmlns="http://www.w3.org/2000/svg" xmlns:xlink="http://www.w3.org/1999/xlink">
    <!-- Generator: Sketch 47.1 (45422) - http://www.bohemiancoding.com/sketch -->
    <title>icon-17@2x</title>
    <desc>Created with Sketch.</desc>
    <defs></defs>
    <g id="B-发现" stroke="none" stroke-width="1" fill="none" fill-rule="evenodd">
        <g id="B-发现-02" transform="translate(-230.000000, -973.000000)">
            <g id="icon-17" transform="translate(230.000000, 973.000000)">
                <rect id="Mask" fill="#0F0C17" x="0" y="0" width="36" height="36" rx="4"></rect>
                <path d="M6.40549215,12.8378937 L4.50905842,12.8378937 L4.50905842,12.1757185 C4.50905842,11.7582908 4.49104022,11.497027 4.4550033,11.3919193 C4.41896637,11.2868116 4.33337996,11.2342585 4.19824148,11.2342585 C4.08112148,11.2342585 4.00154112,11.279304 3.95949804,11.3693963 C3.91745496,11.4594886 3.89643374,11.6907221 3.89643374,12.0631037 L3.89643374,15.5631726 C3.89643374,15.890508 3.91745496,16.1059756 3.95949804,16.2095817 C4.00154112,16.3131879 4.08562602,16.3649902 4.21175526,16.3649902 C4.34989681,16.3649902 4.44374157,16.3064311 4.49329234,16.1893111 C4.54284311,16.0721911 4.56761813,15.8439606 4.56761813,15.5046129 L4.56761813,14.639731 L4.1847277,14.639731 L4.1847277,13.5316011 L6.40549215,13.5316011 L6.40549215,17.4460926 L5.21177496,17.4460926 L5.03609582,16.9235598 C4.9069635,17.1487905 4.74404901,17.3177111 4.54734746,17.4303265 C4.3506459,17.5429419 4.11866167,17.5992487 3.85138781,17.5992487 C3.53306163,17.5992487 3.23501069,17.5219207 2.95722606,17.3672622 C2.67944142,17.2126037 2.46847841,17.0211604 2.32433071,16.7929266 C2.18018301,16.5646927 2.09009204,16.3252009 2.05405512,16.0744439 C2.01801819,15.823687 2,15.4475572 2,14.9460433 L2,12.779334 C2,12.0826201 2.0375379,11.5766092 2.11261483,11.2612861 C2.18769176,10.945963 2.40315931,10.6569212 2.75902396,10.3941519 C3.1148886,10.1313827 3.57510327,10 4.13968177,10 C4.69525105,10 5.15621647,10.1141152 5.52259189,10.3423491 C5.8889673,10.5705829 6.12770835,10.8416066 6.23882221,11.1554282 C6.34993606,11.4692497 6.40549215,11.9249598 6.40549215,12.5225722 L6.40549215,12.8378937 Z M7.13974085,10.1531562 L8.48210962,10.1531562 C9.37702661,10.1531562 9.98288834,10.187691 10.299713,10.2567618 C10.6165376,10.3258326 10.8747984,10.5022607 11.074503,10.7860515 C11.2742076,11.0698423 11.3740585,11.5225494 11.3740585,12.1441864 C11.3740585,12.7117679 11.3034872,13.093153 11.1623426,13.288353 C11.021198,13.4835531 10.7434175,13.6006713 10.3289928,13.6397113 C10.7043775,13.7328067 10.9566322,13.8574325 11.0857645,14.0135925 C11.2148968,14.1697526 11.2952279,14.3131473 11.3267602,14.4437812 C11.3582925,14.5744151 11.3740585,14.9340281 11.3740585,15.5226313 L11.3740585,17.4460926 L9.61276252,17.4460926 L9.61276252,15.0226214 C9.61276252,14.6322214 9.58198144,14.3904773 9.52041836,14.2973819 C9.45885527,14.2042865 9.2974423,14.1577395 9.03617459,14.1577395 L9.03617459,17.4460926 L7.13974085,17.4460926 L7.13974085,10.1531562 Z M9.03617459,11.4009285 L9.03617459,13.022582 C9.24939306,13.022582 9.39879391,12.9933025 9.48438161,12.9347425 C9.56996931,12.8761825 9.61276252,12.6862407 9.61276252,12.3649114 L9.61276252,11.9640026 C9.61276252,11.7327657 9.57147083,11.5811126 9.4888862,11.5090387 C9.40630158,11.4369649 9.25539922,11.4009285 9.03617459,11.4009285 Z M16.4417258,14.4235105 C16.4417258,15.1562614 16.4244584,15.6750351 16.389923,15.9798475 C16.3553876,16.2846598 16.2472785,16.563191 16.0655923,16.8154495 C15.8839061,17.067708 15.6384082,17.2614036 15.3290913,17.396542 C15.0197743,17.5316805 14.6594105,17.5992487 14.2479889,17.5992487 C13.8575889,17.5992487 13.5069849,17.5354343 13.1961664,17.4078035 C12.8853479,17.2801727 12.6353455,17.0887295 12.4461516,16.8334679 C12.2569578,16.5782063 12.1443441,16.3004259 12.1083072,16.0001181 C12.0722702,15.6998104 12.054252,15.1742798 12.054252,14.4235105 L12.054252,13.1757382 C12.054252,12.4429874 12.0715195,11.9242136 12.1060549,11.6194013 C12.1405902,11.3145889 12.2486994,11.0360577 12.4303856,10.7837992 C12.6120717,10.5315407 12.8575696,10.3378452 13.1668866,10.2027067 C13.4762035,10.0675682 13.8365674,10 14.2479889,10 C14.638389,10 14.988993,10.0638144 15.2998114,10.1914452 C15.6106299,10.319076 15.8606323,10.5105193 16.0498262,10.7657808 C16.2390201,11.0210424 16.3516338,11.2988229 16.3876707,11.5991306 C16.4237076,11.8994383 16.4417258,12.4249689 16.4417258,13.1757382 L16.4417258,14.4235105 Z M14.5452921,12.0270669 C14.5452921,11.6877192 14.5265231,11.4707502 14.4889847,11.3761532 C14.4514462,11.2815563 14.3741181,11.2342585 14.2569981,11.2342585 C14.1578966,11.2342585 14.08207,11.2725472 14.0295162,11.3491257 C13.9769623,11.4257041 13.9506858,11.6516823 13.9506858,12.0270669 L13.9506858,15.4325394 C13.9506858,15.8559733 13.9679532,16.1172371 14.0024886,16.2163386 C14.037024,16.3154402 14.1173551,16.3649902 14.2434843,16.3649902 C14.3726166,16.3649902 14.4552,16.3079326 14.491237,16.1938157 C14.5272739,16.0796987 14.5452921,15.8079243 14.5452921,15.3784843 L14.5452921,12.0270669 Z M24.2842226,10.1531562 L23.4418637,17.4460926 L21.0724476,17.4460926 C20.8562261,16.3259448 20.6655335,15.0526592 20.5003643,13.6261975 C20.4252874,14.2358222 20.24961,15.5091078 19.9733269,17.4460926 L17.6174246,17.4460926 L16.7705611,10.1531562 L18.6129397,10.1531562 L18.8066372,12.6982513 L19.0048394,15.1532546 C19.0739101,13.882953 19.248086,12.2162702 19.5273722,10.1531562 L21.500384,10.1531562 C21.5274117,10.3663746 21.5964814,11.1681842 21.7075953,12.5586089 L21.9148066,15.3289338 C22.0199143,13.5661275 22.1955916,11.8408855 22.441844,10.1531562 L24.2842226,10.1531562 Z M28.4825035,10.1531562 L28.4825035,11.6126444 L27.3563552,11.6126444 L27.3563552,17.4460926 L25.4599214,17.4460926 L25.4599214,11.6126444 L24.3382777,11.6126444 L24.3382777,10.1531562 L28.4825035,10.1531562 Z M33.2753906,10.1531562 L33.2753906,17.4460926 L31.3789569,17.4460926 L31.3789569,14.3829692 L30.8113781,14.3829692 L30.8113781,17.4460926 L28.9149444,17.4460926 L28.9149444,10.1531562 L30.8113781,10.1531562 L30.8113781,12.7613156 L31.3789569,12.7613156 L31.3789569,10.1531562 L33.2753906,10.1531562 Z M8.07219164,18.0606478 L8.07219164,25.3535842 L6.1757579,25.3535842 L6.1757579,22.2904608 L5.60817916,22.2904608 L5.60817916,25.3535842 L3.71174542,25.3535842 L3.71174542,18.0606478 L5.60817916,18.0606478 L5.60817916,20.6688073 L6.1757579,20.6688073 L6.1757579,18.0606478 L8.07219164,18.0606478 Z M12.1083072,18.0606478 L13.1939141,25.3535842 L11.2524344,25.3535842 L11.157838,24.0427476 L10.4776444,24.0427476 L10.3650296,25.3535842 L8.40102694,25.3535842 L9.36500989,18.0606478 L12.1083072,18.0606478 Z M11.1037829,22.7499293 C11.0076844,21.9240831 10.9115874,20.9045537 10.8154889,19.6913105 C10.623292,21.0847383 10.5031707,22.1042677 10.4551214,22.7499293 L11.1037829,22.7499293 Z M17.9462599,21.2408906 L16.0498262,21.2408906 L16.0498262,19.9705953 C16.0498262,19.6012168 16.0295557,19.3707341 15.9890142,19.2791402 C15.9484727,19.1875464 15.8591325,19.1417502 15.7209909,19.1417502 C15.5648309,19.1417502 15.4657308,19.1973062 15.4236878,19.3084201 C15.3816447,19.419534 15.3606234,19.6597765 15.3606234,20.029155 L15.3606234,23.4166091 C15.3606234,23.7709722 15.3816447,24.0022057 15.4236878,24.1103165 C15.4657308,24.2184272 15.5603263,24.2724818 15.7074771,24.2724818 C15.8486218,24.2724818 15.940965,24.2184272 15.9845096,24.1103165 C16.0280542,24.0022057 16.0498262,23.7484495 16.0498262,23.3490402 L16.0498262,22.4346078 L17.9462599,22.4346078 L17.9462599,22.7183972 C17.9462599,23.4721695 17.8929561,24.0067092 17.7863469,24.3220323 C17.6797376,24.6373554 17.4439996,24.9136344 17.0791258,25.1508775 C16.7142519,25.3881206 16.2645478,25.5067404 15.7300001,25.5067404 C15.1744308,25.5067404 14.7164684,25.4061388 14.3560992,25.2049326 C13.9957299,25.0037264 13.7569889,24.7251952 13.6398688,24.3693306 C13.5227488,24.0134659 13.4641897,23.4781755 13.4641897,22.7634431 L13.4641897,20.6327705 C13.4641897,20.107232 13.4822079,19.713084 13.5182448,19.4503148 C13.5542818,19.1875455 13.6616401,18.9345401 13.8403232,18.6912908 C14.0190063,18.4480416 14.2667565,18.2565983 14.5835811,18.1169552 C14.9004058,17.9773121 15.2645234,17.9074916 15.675945,17.9074916 C16.2345173,17.9074916 16.6954828,18.0156008 17.0588551,18.2318223 C17.4222274,18.4480439 17.6609685,18.717566 17.7750854,19.0403968 C17.8892023,19.3632276 17.9462599,19.8654847 17.9462599,20.5471832 L17.9462599,21.2408906 Z M23.1445605,18.0606478 L22.0589535,21.3535054 L23.2481661,25.3535842 L21.2886681,25.3535842 L20.5228873,22.2273965 L20.5228873,25.3535842 L18.6264535,25.3535842 L18.6264535,18.0606478 L20.5228873,18.0606478 L20.5228873,20.8940369 L21.3652462,18.0606478 L23.1445605,18.0606478 Z M23.5770015,18.0606478 L26.7392259,18.0606478 L26.7392259,19.520136 L25.4734352,19.520136 L25.4734352,20.9030461 L26.6581432,20.9030461 L26.6581432,22.2904608 L25.4734352,22.2904608 L25.4734352,23.894096 L26.8653545,23.894096 L26.8653545,25.3535842 L23.5770015,25.3535842 L23.5770015,18.0606478 Z M27.4104103,18.0606478 L28.752779,18.0606478 C29.647696,18.0606478 30.2535578,18.0951827 30.5703824,18.1642534 C30.887207,18.2333242 31.1454678,18.4097523 31.3451724,18.6935431 C31.5448771,18.9773339 31.6447279,19.430041 31.6447279,20.051678 C31.6447279,20.6192596 31.5741566,21.0006446 31.433012,21.1958447 C31.2918674,21.3910447 31.0140869,21.5081629 30.5996623,21.5472029 C30.9750469,21.6402983 31.2273016,21.7649241 31.3564339,21.9210842 C31.4855662,22.0772442 31.5658973,22.220639 31.5974297,22.3512728 C31.628962,22.4819067 31.6447279,22.8415198 31.6447279,23.4301229 L31.6447279,25.3535842 L29.8834319,25.3535842 L29.8834319,22.930113 C29.8834319,22.539713 29.8526509,22.2979689 29.7910878,22.2048735 C29.7295247,22.1117781 29.5681117,22.0652311 29.306844,22.0652311 L29.306844,25.3535842 L27.4104103,25.3535842 L27.4104103,18.0606478 Z M29.306844,19.3084201 L29.306844,20.9300737 C29.5200625,20.9300737 29.6694633,20.9007941 29.755051,20.8422341 C29.8406387,20.7836741 29.8834319,20.5937323 29.8834319,20.272403 L29.8834319,19.8714943 C29.8834319,19.6402573 29.8421402,19.4886042 29.7595556,19.4165303 C29.676971,19.3444565 29.5260686,19.3084201 29.306844,19.3084201 Z" id="GROWTH-HACKER" fill="#D63D43"></path>
            </g>
        </g>
    </g>
</svg>