<?xml version="1.0" encoding="UTF-8"?>
<svg width="36px" height="36px" viewBox="0 0 36 36" version="1.1" xmlns="http://www.w3.org/2000/svg" xmlns:xlink="http://www.w3.org/1999/xlink">
    <!-- Generator: Sketch 47.1 (45422) - http://www.bohemiancoding.com/sketch -->
    <title>icon-19@2x</title>
    <desc>Created with Sketch.</desc>
    <defs></defs>
    <g id="B-发现" stroke="none" stroke-width="1" fill="none" fill-rule="evenodd">
        <g id="B-发现-02" transform="translate(-230.000000, -866.000000)">
            <g id="icon-19" transform="translate(230.000000, 866.000000)">
                <g id="icon-11" opacity="0.800000012" fill="#8E91D1">
                    <rect id="Rectangle-3-Copy-10" x="0" y="0" width="36" height="36" rx="4"></rect>
                </g>
                <path d="M26.4324288,13.0817114 L18.0077102,17.2642182 L9.58299169,13.0817114 C9.1085156,12.844078 9.13817036,12.2509828 9.61264645,12.0433995 L17.39959,8.63191638 C17.7856147,8.45396703 18.2302012,8.45396703 18.6162258,8.63191638 L26.3881443,12.0137448 C26.8772501,12.2513782 26.8772501,12.8444734 26.4324288,13.0817114 Z M16.3165983,27.3946783 L9.18245478,23.5387692 C8.73763345,23.3311859 8.5,22.9452787 8.5,22.5297167 L8.5,14.7728233 C8.5,14.2979518 9.07846545,14.031059 9.52368219,14.2686924 L16.6578257,18.1249969 C17.0583626,18.3325802 17.3102304,18.7180921 17.3102304,19.1332586 L17.3102304,26.8909429 C17.3256508,27.3361596 16.74679,27.6323118 16.3165983,27.3946783 Z M19.7130564,27.3946783 L26.8475954,23.5387692 C27.2481323,23.3311859 27.5,22.9452787 27.5,22.5297167 L27.5,14.7728233 C27.5,14.2979518 26.92193,14.031059 26.4767132,14.2686924 L19.3271492,18.1246015 C18.9270077,18.3321848 18.6751399,18.7176967 18.6751399,19.1328632 L18.6751399,26.8905475 C18.690165,27.3361596 19.2686305,27.6323118 19.7130564,27.3946783 Z" id="Shape" fill="#FFFFFF" fill-rule="nonzero"></path>
            </g>
        </g>
    </g>
</svg>