<?xml version="1.0" encoding="UTF-8"?>
<svg width="36px" height="36px" viewBox="0 0 36 36" version="1.1" xmlns="http://www.w3.org/2000/svg" xmlns:xlink="http://www.w3.org/1999/xlink">
    <!-- Generator: Sketch 47.1 (45422) - http://www.bohemiancoding.com/sketch -->
    <title>icon-1@2x</title>
    <desc>Created with Sketch.</desc>
    <defs></defs>
    <g id="B-发现" stroke="none" stroke-width="1" fill="none" fill-rule="evenodd" opacity="0.800000012">
        <g id="B-发现-02" transform="translate(-230.000000, -691.000000)">
            <g id="icon-1" transform="translate(230.000000, 691.000000)">
                <rect id="Rectangle-3-Copy-14" fill="#6A77AE" x="0" y="0" width="36" height="36" rx="4"></rect>
                <g id="管理-3" transform="translate(7.000000, 7.000000)" fill-rule="nonzero" fill="#FFFFFF">
                    <path d="M4.35057397,5.65544988 C4.35901417,4.52987657 4.68485649,3.49940989 5.31907615,2.56882686 C5.93572122,1.66408334 6.74652712,0.973944989 7.73994794,0.499497491 C8.28457742,0.239365631 8.8646118,0.0938828692 9.46280537,0.0220100583 C10.1257801,-0.0576797617 10.7583191,0.0853059211 11.3558915,0.349382437 C13.0684454,1.10610991 14.1832441,2.40600921 14.7436213,4.16132023 C15.1820359,5.5343952 15.0020152,6.85973587 14.2550039,8.09384224 C13.572372,9.22176788 12.6254635,10.0757372 11.4165074,10.628246 C10.515271,11.0401214 9.57033556,11.130451 8.61235619,10.8788599 C7.04617195,10.4675273 5.80740117,9.60252014 5.00013944,8.18894887 C4.55328458,7.40652668 4.34735868,6.55552493 4.35061053,5.65552224 L4.35057397,5.65544988 Z M10.9508722,12.2440817 C11.0781692,12.244516 11.2070739,12.2597157 11.3323248,12.2830942 C11.6115451,12.3352437 11.7195137,12.4917643 11.6311293,12.7596046 C11.5544734,12.9918341 11.458891,13.2233399 11.3345901,13.4337109 C10.9781293,14.0372834 10.6417276,14.6485643 10.4119791,15.312646 C10.0444109,16.3751768 9.91006214,17.4638728 10.060049,18.5788787 C10.1181438,19.0108033 10.2176357,19.437227 10.29568,19.8665459 C10.3130354,19.9617611 10.3264812,20.058641 10.3299522,20.1551591 C10.3389405,20.4045426 10.2260028,20.5661298 9.97667019,20.6166144 C9.77118271,20.6582327 9.55882618,20.6762551 9.34873501,20.6845064 C8.37438683,20.7225418 7.4043866,20.6519718 6.43493445,20.5635241 C5.68032341,20.4947274 4.92425084,20.4412389 4.16949363,20.3737451 C3.42613614,20.3072284 2.6840575,20.2262357 1.94048082,20.1620351 C1.48317623,20.1225521 1.0403405,20.0228494 0.605579582,19.8847131 C0.0712902429,19.714947 -0.0863329549,19.4736701 0.0424620859,18.931222 C0.157701688,18.4457728 0.312584575,17.9685749 0.469294326,17.4939465 C0.778329355,16.5582607 1.0691321,15.6148304 1.42530066,14.6966243 C1.92506196,13.4081609 2.88205476,12.6131809 4.25999729,12.3584413 C4.67630671,12.2815019 5.10595235,12.2597519 5.53051924,12.2461445 C6.35604978,12.2196536 7.18238415,12.2167585 8.00838968,12.204092 C8.00846276,12.216867 9.97012998,12.2409332 10.9508722,12.2440817 L10.9508722,12.2440817 Z M14.9287208,20.9900202 C14.7057683,21.2243487 14.4863966,21.4554926 14.2663306,21.6859489 C14.0648257,21.8968989 13.7803805,21.9419913 13.5283807,21.7997656 C13.4780319,21.7713567 13.4322868,21.7321632 13.390707,21.6916307 C13.128294,21.4355883 12.867379,21.1780259 12.6064274,20.9204997 C12.4309739,20.747368 12.3615524,20.5417379 12.4486946,20.3074817 C12.4827477,20.2159579 12.5468346,20.1287044 12.6164022,20.058062 C12.8279549,19.8433483 13.0482766,19.6371391 13.2668445,19.4293376 C13.2997649,19.3980697 13.3049167,19.3762835 13.2851864,19.3319148 C13.1634418,19.0578326 13.0449665,18.7823372 12.9297852,18.5054859 C12.9081915,18.4536622 12.8832728,18.4357845 12.8257992,18.4364359 C12.5272139,18.4398015 12.2282267,18.4289084 11.9300434,18.4405615 C11.6231641,18.4525403 11.3944752,18.2258116 11.3212174,17.9839194 C11.296591,17.902601 11.2841682,17.8147685 11.2832182,17.7297226 C11.279126,17.3692004 11.2795645,17.008642 11.2821221,16.6481199 C11.2839855,16.3869385 11.3882273,16.176459 11.6122759,16.0301076 C11.69697,15.9747373 11.7907986,15.9530597 11.8910578,15.9530959 C12.2049158,15.9532768 12.5188468,15.9515759 12.8326682,15.9546882 C12.8860497,15.9552673 12.9082645,15.9370276 12.9269718,15.8909581 C13.0252579,15.6490297 13.1259556,15.4080784 13.227457,15.1675252 C13.2500738,15.1140729 13.279377,15.0634435 13.3074013,15.0079646 C13.2945401,14.9946106 13.2819346,14.9802071 13.2680137,14.9671788 C13.0508343,14.7641905 12.8337644,14.5610575 12.6161464,14.3585397 C12.3464259,14.1075639 12.3364511,13.748634 12.5958315,13.4868012 C12.8568971,13.2232874 13.1195462,12.9613173 13.3837649,12.7009048 C13.6431818,12.4451881 13.989814,12.4486261 14.2469291,12.707998 C14.4607144,12.9236931 14.6732813,13.1405695 14.8846199,13.3586172 C14.9160422,13.391007 14.9375994,13.3970869 14.9827964,13.3773634 C15.259386,13.2565259 15.5378025,13.1395968 15.817169,13.0252734 C15.869089,13.0040301 15.8879789,12.9798553 15.8872482,12.922567 C15.8837771,12.6268244 15.894848,12.3306476 15.8830829,12.0353393 C15.8709889,11.7313455 16.099897,11.5048701 16.3440778,11.4322734 C16.4261778,11.4078815 16.5148545,11.3955408 16.6007179,11.3946361 C16.9668848,11.3905768 17.3330846,11.3902994 17.6992574,11.3938038 C17.9603551,11.396337 18.1705559,11.5008168 18.3167428,11.7205247 C18.3725723,11.8044849 18.3945314,11.897384 18.3944583,11.9966524 C18.3943121,12.3075223 18.3960294,12.6184646 18.3928506,12.9292983 C18.392266,12.9822077 18.4107906,13.0040663 18.457303,13.0225954 C18.7556325,13.1418044 19.0528658,13.2637638 19.3505011,13.3848185 L19.3586855,13.4093552 C19.3721314,13.3897403 19.3833119,13.3679903 19.399498,13.3509087 C19.6038419,13.1352218 19.8086478,12.9199648 20.0139143,12.705139 C20.215748,12.4940081 20.499901,12.4491328 20.7519008,12.5917566 C20.8022496,12.6202017 20.8478851,12.6595399 20.8893918,12.7000724 C21.1517065,12.9562407 21.4131952,13.2132375 21.673854,13.4710587 C21.8491614,13.6441904 21.9187656,13.8498929 21.8310388,14.0841853 C21.7967665,14.1756729 21.7328623,14.2629988 21.6632581,14.333605 C21.4516323,14.5482101 21.2313472,14.7544917 21.0124869,14.962076 C20.9787262,14.9940316 20.976132,15.0163606 20.9953508,15.0596435 C21.1168863,15.3338373 21.2352394,15.6094042 21.3503867,15.8862896 C21.37209,15.9384752 21.3977029,15.9554482 21.4547015,15.954833 C21.7532868,15.9515759 22.052274,15.9621071 22.3504573,15.9508521 C22.6555828,15.9393438 22.8805083,16.1606802 22.9573103,16.4015953 C22.983727,16.4844698 22.9957479,16.5748356 22.996844,16.6620167 C23.0011189,17.0225389 23.0006074,17.3831335 22.9979401,17.7436195 C22.9960037,18.004837 22.8915792,18.2152442 22.667421,18.3614507 C22.5826538,18.4167487 22.4888252,18.4382092 22.388566,18.438173 C22.0768638,18.4379559 21.765125,18.4399825 21.4534958,18.4364359 C21.3950356,18.4357845 21.3709573,18.4554355 21.3504232,18.5067164 C21.2565947,18.7410812 21.1593316,18.9741431 21.0612281,19.2067707 C21.0361633,19.2661581 21.0035352,19.3224331 20.966413,19.3958983 C20.9807358,19.4051991 21.0011968,19.4146808 21.0168349,19.429229 C21.2346355,19.6315659 21.4517785,19.8346265 21.6691042,20.03747 C21.9177791,20.269591 21.9502975,20.6130317 21.7210241,20.8594114 C21.4434786,21.1579938 21.1545869,21.4460304 20.8549733,21.7228986 C20.6051658,21.9535358 20.2780447,21.9291802 20.0371888,21.6867813 C19.821617,21.4698238 19.607872,21.2510206 19.3952597,21.0312403 C19.362997,20.9979096 19.3404898,20.9950868 19.2967178,21.0141226 C19.0198887,21.134525 18.7416731,21.2517754 18.4621259,21.3658506 C18.4095118,21.3873474 18.392266,21.412644 18.3928872,21.4691362 C18.3962121,21.7648787 18.3855431,22.0609832 18.3969428,22.3563639 C18.4085618,22.6585482 18.1852074,22.8813322 17.9419036,22.9574755 C17.858269,22.9836407 17.7669981,22.9955833 17.6790155,22.9966328 C17.3128722,23.0008308 16.9466193,23.0010841 16.5804395,22.9975013 C16.3194149,22.9949319 16.1092141,22.8903073 15.9632464,22.6704546 C15.9074534,22.5864582 15.885677,22.4935592 15.8857501,22.3942907 C15.8859328,22.085556 15.8839232,21.7767852 15.8874674,21.4681229 C15.8881251,21.4103278 15.8683947,21.3864426 15.816621,21.3659592 C15.5721479,21.2692602 15.3290998,21.1689785 15.0862709,21.0682986 C15.0343144,21.0465847 14.985281,21.0182482 14.9288304,20.9899478 L14.9287208,20.9900202 L14.9287208,20.9900202 Z M19.7838005,17.1919431 C19.7815717,15.7498543 18.5976073,14.5779219 17.1415109,14.5766915 C15.6813588,14.5753886 14.4929002,15.7548485 14.4961886,17.2019315 C14.499477,18.6458297 15.6886297,19.816966 17.1483434,19.813926 C18.6019918,19.8108861 19.7859928,18.6329462 19.783764,17.1919431 L19.7838005,17.1919431 L19.7838005,17.1919431 Z" id="Shape"></path>
                </g>
            </g>
        </g>
    </g>
</svg>