<?xml version="1.0" encoding="UTF-8"?>
<svg width="36px" height="36px" viewBox="0 0 36 36" version="1.1" xmlns="http://www.w3.org/2000/svg" xmlns:xlink="http://www.w3.org/1999/xlink">
    <!-- Generator: Sketch 47.1 (45422) - http://www.bohemiancoding.com/sketch -->
    <title>icon-14@2x</title>
    <desc>Created with Sketch.</desc>
    <defs></defs>
    <g id="B-发现" stroke="none" stroke-width="1" fill="none" fill-rule="evenodd" opacity="0.800000012">
        <g id="B-发现-02" transform="translate(-230.000000, -412.000000)">
            <g id="icon-14" transform="translate(230.000000, 412.000000)">
                <rect id="Rectangle-3-Copy-4" fill="#489EEA" x="0" y="0" width="36" height="36" rx="4"></rect>
                <path d="M9.81506406,14.6722689 C10.7122454,14.6722689 11.3269807,14.8403361 11.6260412,15.1932773 C11.9251016,15.5294118 11.9915595,16.1344538 11.8420292,16.9243698 C11.6758845,17.8151261 11.3602097,18.3865546 10.8783901,18.7563025 C10.4131849,19.1260504 9.69876281,19.3109244 8.73512361,19.3109244 L7.28966482,19.3109244 L8.17023165,14.6722689 L9.81506406,14.6722689 L9.81506406,14.6722689 Z M4,24 L6.39248351,24 L6.95737542,21.0588236 L9.00095508,21.0588236 C9.8981364,21.0588236 10.629173,20.9579832 11.2106794,20.7731092 C11.7921858,20.5714286 12.3238489,20.2521008 12.8056684,19.7983194 C13.2044157,19.4285714 13.5200906,19.0252101 13.7693077,18.5714286 C14.0185247,18.1344538 14.2012838,17.6302521 14.2843562,17.092437 C14.5501877,15.7815126 14.3674285,14.7563025 13.7360787,14.0336134 C13.0881144,13.2941177 12.0912463,12.9411765 10.7122454,12.9411765 L6.12665199,12.9411765 L4,24 L4,24 Z M16.0454899,10 L13.9188379,21.0588236 L16.2780924,21.0588236 L17.5075631,14.7226891 L19.4016126,14.7226891 C19.9997334,14.7226891 20.3984807,14.8235294 20.5812398,15.0252101 C20.763999,15.2268907 20.797228,15.5966387 20.6975411,16.1344538 L19.7505164,21.0588236 L22.1596144,21.0588236 L23.1398681,15.8991597 C23.3558562,14.8571429 23.1897115,14.1008404 22.6912774,13.6134454 C22.1928433,13.1596639 21.2790475,12.9411764 19.94989,12.9411765 L17.8398525,12.9411765 L18.4379734,10 L16.0454899,10 L16.0454899,10 Z M28.4066546,14.6722689 C29.3204504,14.6722689 29.9185713,14.8403361 30.2176318,15.1932773 C30.5166922,15.5294118 30.5831501,16.1344538 30.4336198,16.9243698 C30.2674751,17.8151261 29.9518002,18.3865546 29.4865951,18.7563025 C29.0047755,19.1260504 28.2903534,19.3109244 27.3267142,19.3109244 L25.9144843,19.3109244 L26.7452078,14.6722689 L28.4066546,14.6722689 L28.4066546,14.6722689 Z M22.5915906,24 L24.9840741,24 L25.548966,21.0588236 L27.5759312,21.0588236 C28.489727,21.0588236 29.2373781,20.9579832 29.8188845,20.7731092 C30.4003909,20.5714286 30.898825,20.2521008 31.397259,19.7983194 C31.7960063,19.4285714 32.1282956,19.0252101 32.3608982,18.5714286 C32.6101153,18.1344538 32.7928744,17.6302521 32.8925612,17.092437 C33.1417783,15.7815126 32.9590191,14.7563025 32.3276693,14.0336134 C31.7295484,13.2941177 30.6828369,12.9411765 29.303836,12.9411765 L24.7348571,12.9411765 L22.5915906,24 L22.5915906,24 Z" id="Shape" fill="#FFFFFF" fill-rule="nonzero"></path>
            </g>
        </g>
    </g>
</svg>