<?xml version="1.0" encoding="UTF-8"?>
<svg width="36px" height="36px" viewBox="0 0 36 36" version="1.1" xmlns="http://www.w3.org/2000/svg" xmlns:xlink="http://www.w3.org/1999/xlink">
    <!-- Generator: Sketch 47.1 (45422) - http://www.bohemiancoding.com/sketch -->
    <title>icon-6@2x</title>
    <desc>Created with Sketch.</desc>
    <defs></defs>
    <g id="B-发现" stroke="none" stroke-width="1" fill="none" fill-rule="evenodd" opacity="0.800000012">
        <g id="B-发现-02" transform="translate(-230.000000, -356.000000)">
            <g id="icon-6" transform="translate(230.000000, 356.000000)">
                <rect id="Rectangle-3-Copy-3" fill="#2274A9" x="0" y="0" width="36" height="36" rx="4"></rect>
                <g id="python" transform="translate(6.000000, 6.000000)" fill-rule="nonzero" fill="#FFFFFF">
                    <path d="M7.62530461,0.800972535 C8.7196218,0.248197273 9.97027001,0.0922863013 11.1782825,0.0355914026 C12.059421,-0.0494509454 12.9405595,0.0355914026 13.8074861,0.106460026 C14.9160152,0.248197273 16.06718,0.503324317 16.9767424,1.1836631 C17.5452188,1.62304857 18,2.2750399 18,3.01207358 C17.9857881,4.89717897 18,6.78228435 17.9857881,8.66738973 C17.9857881,9.48946576 17.673126,10.3257155 17.0478019,10.8784908 C16.4366897,11.4029186 15.6408227,11.6580456 14.8449556,11.7005668 L8.79068135,11.7005668 C7.99481431,11.7147405 7.17052344,11.9415201 6.57362316,12.5084691 C5.84881567,13.1888079 5.53615362,14.2093161 5.56457744,15.1873031 C5.56457744,16.1227689 5.57878936,17.0582347 5.56457744,17.9937006 C4.83976996,17.9937006 4.11496247,18.0078743 3.39015499,17.9937006 C2.423745,17.9511794 1.58524223,17.3417092 1.0594015,16.5621544 C0.291958281,15.3715615 0.0787796081,13.9400153 0.0219319622,12.5509903 C0.0219319622,12.3242107 -0.0491275953,12.0690837 0.0645676967,11.8423041 C-0.0207037723,11.6863931 0.0361438737,11.4879609 0.0361438737,11.3178762 C0.107203431,9.99971985 0.363017838,8.61069483 1.20152062,7.54766548 C1.85526854,6.68306828 2.96379764,6.18698791 4.05811483,6.24368281 C6.7441661,6.25785654 9.43021737,6.24368281 12.1020567,6.24368281 L12.1020567,5.4924754 L6.26096111,5.4924754 C6.26096111,4.5144884 6.2467492,3.5365014 6.2467492,2.55851439 C6.31780875,1.75061209 6.95734477,1.15531565 7.62530461,0.800972535 L7.62530461,0.800972535 Z M8.44959548,2.00573913 C7.72478799,2.26086618 7.58266888,3.35224298 8.22220489,3.77745472 C8.83331709,4.24518763 9.82815089,3.77745472 9.8423628,3.01207358 C9.92763427,2.30338735 9.10334341,1.70809091 8.44959548,2.00573913 Z" id="Shape"></path>
                    <path d="M18.4845606,6.00793615 L20.2945368,6.00793615 C21.1781473,5.93687745 22.0617577,6.34901793 22.6460808,7.00275801 C23.5581948,8.04021509 23.8289786,9.43296568 24,10.7546576 L24,13.1280183 C23.8432304,14.4354984 23.5154394,15.828249 22.5605701,16.7946474 C21.9192399,17.419964 21.0213777,17.803681 20.1235154,17.7610458 C17.3871734,17.7468341 14.6508314,17.7610458 11.9002375,17.7610458 L11.9002375,18.5142681 L17.7577197,18.5142681 C17.7577197,19.4664547 17.7577197,20.4044296 17.7719715,21.3566162 C17.8004751,22.1098385 17.2446556,22.7209433 16.631829,23.0904486 C15.4774347,23.7726121 14.0950119,23.8863061 12.7980998,24 L11.2589074,24 C9.9192399,23.8863061 8.50831354,23.7441887 7.32541568,23.0193899 C6.59857482,22.5930377 6.02850356,21.8256037 6,20.9728992 C6.01425178,19.0827377 5.98574822,17.1925762 6.01425178,15.3024146 C6.02850356,14.5207689 6.29928741,13.7249114 6.88361045,13.1848653 C7.52494062,12.5879721 8.40855107,12.3179491 9.27790974,12.2753138 L15.263658,12.2753138 C16.0902613,12.2753138 16.9453682,12.0052908 17.5154394,11.4083977 C18.1567696,10.7688693 18.4418052,9.85931791 18.4703088,8.96397824 C18.4845606,7.99757986 18.4703088,7.00275801 18.4845606,6.00793615 L18.4845606,6.00793615 Z M14.9216152,20.105983 C14.6650831,20.1912535 14.4228029,20.3617944 14.2945368,20.6033939 C14.0095012,21.1292284 14.280285,21.8682389 14.8646081,22.0387798 C15.4774347,22.2945911 16.2470309,21.754545 16.2042755,21.0865931 C16.2755344,20.4470648 15.5344418,19.8928069 14.9216152,20.105983 Z" id="Shape"></path>
                </g>
            </g>
        </g>
    </g>
</svg>