<?xml version="1.0" encoding="UTF-8"?>
<svg width="36px" height="36px" viewBox="0 0 36 36" version="1.1" xmlns="http://www.w3.org/2000/svg" xmlns:xlink="http://www.w3.org/1999/xlink">
    <!-- Generator: Sketch 47.1 (45422) - http://www.bohemiancoding.com/sketch -->
    <title>icon-18@2x</title>
    <desc>Created with Sketch.</desc>
    <defs></defs>
    <g id="B-发现" stroke="none" stroke-width="1" fill="none" fill-rule="evenodd" opacity="0.800000012">
        <g id="B-发现-02" transform="translate(-230.000000, -699.000000)">
            <g id="icon-18" transform="translate(230.000000, 699.000000)">
                <rect id="Rectangle-3-Copy-8" fill="#4B6BEF" x="0" y="0" width="36" height="36" rx="4"></rect>
                <path d="M28.035245,28 L14.964755,28 C13.8796936,28 13,27.1715079 13,26.1444048 L13,16.8555952 C13,15.8295238 13.8802229,15 14.9674015,15 L20.832555,15 C21.1935363,15 21.4862382,15.2770238 21.4862382,15.6190476 C21.4862382,15.9610714 21.1935363,16.2380952 20.832555,16.2380952 L14.9674015,16.2380952 C14.6005978,16.2380952 14.3078959,16.5140873 14.3078959,16.8555952 L14.3078959,26.1444048 C14.3078959,26.4859127 14.6005978,26.7619048 14.964755,26.7619048 L28.035245,26.7619048 C28.3988729,26.7619048 28.6921041,26.4848809 28.6921041,26.1444048 L28.6921041,16.8555952 C28.6921041,16.5140873 28.3988729,16.2380952 28.0331278,16.2380952 L26.7659879,16.2380952 C26.4050065,16.2380952 26.1123046,15.9610714 26.1123046,15.6190476 C26.1123046,15.2770238 26.4050065,15 26.7659879,15 L28.0331278,15 C29.1192478,15 30,15.8284921 30,16.8555952 L30,26.1444048 C30,27.1699603 29.1197771,28 28.035245,28 Z M23.0325985,22 L17.167445,22 C16.8064637,22 16.5137618,21.7229762 16.5137618,21.3809524 C16.5137618,21.0389286 16.8064637,20.7619048 17.167445,20.7619048 L23.0325985,20.7619048 C23.3994022,20.7619048 23.6921041,20.4859127 23.6921041,20.1444048 L23.6921041,10.8555952 C23.6921041,10.5140873 23.3994022,10.2380952 23.035245,10.2380952 L9.96475497,10.2380952 C9.6011271,10.2380952 9.30789588,10.5151191 9.30789588,10.8555952 L9.30789588,20.1444048 C9.30789588,20.4859127 9.60112708,20.7619048 9.96687217,20.7619048 L11.2340121,20.7619048 C11.5949935,20.7619048 11.8876954,21.0389286 11.8876954,21.3809524 C11.8876954,21.7229762 11.5949934,22 11.2340121,22 L9.96687217,22 C8.88075223,22 8,21.1715079 8,20.1444048 L8,10.8555952 C8,9.83003968 8.88022293,9 9.96475497,9 L23.035245,9 C24.1203064,9 25,9.82900793 25,10.8555952 L25,20.1444048 C25,21.1704762 24.1197771,22 23.0325985,22 Z" id="z" stroke="#FFFFFF" stroke-width="0.5" fill="#FFFFFF" fill-rule="nonzero" transform="translate(19.000000, 18.500000) scale(-1, 1) translate(-19.000000, -18.500000) "></path>
            </g>
        </g>
    </g>
</svg>