<?xml version="1.0" encoding="UTF-8"?>
<svg width="36px" height="36px" viewBox="0 0 36 36" version="1.1" xmlns="http://www.w3.org/2000/svg" xmlns:xlink="http://www.w3.org/1999/xlink">
    <!-- Generator: Sketch 47.1 (45422) - http://www.bohemiancoding.com/sketch -->
    <title>icon-12@2x</title>
    <desc>Created with Sketch.</desc>
    <defs></defs>
    <g id="B-发现" stroke="none" stroke-width="1" fill="none" fill-rule="evenodd" opacity="0.800000012">
        <g id="B-发现-02" transform="translate(-230.000000, -914.000000)">
            <g id="icon-12" transform="translate(230.000000, 914.000000)">
                <rect id="Rectangle-3-Copy-12" fill="#A8ABBA" x="0" y="0" width="36" height="36" rx="4"></rect>
                <g id="企业2" transform="translate(10.000000, 9.000000)" fill-rule="nonzero" fill="#FFFFFF">
                    <path d="M15.5833333,17.5714286 L15.5833333,3.32142857 C15.5833333,3.125 15.4239583,2.96428571 15.2291667,2.96428571 L11.3333333,2.96428571 L11.3333333,0.357142857 C11.3333333,0.160714286 11.1739583,0 10.9791667,0 L1.77083333,0 C1.57604167,0 1.41666667,0.160714286 1.41666667,0.357142857 L1.41666667,17.5714286 L0,17.5714286 L0,19 L17,19 L17,17.5714286 L15.5833333,17.5714286 Z M5.66666667,15.7142857 L4.25,15.7142857 L4.25,14.2857143 L5.66666667,14.2857143 L5.66666667,15.7142857 Z M5.66666667,12.8571429 L4.25,12.8571429 L4.25,11.4285714 L5.66666667,11.4285714 L5.66666667,12.8571429 Z M5.66666667,10 L4.25,10 L4.25,8.57142857 L5.66666667,8.57142857 L5.66666667,10 Z M5.66666667,7.14285714 L4.25,7.14285714 L4.25,5.71428571 L5.66666667,5.71428571 L5.66666667,7.14285714 Z M5.66666667,4.28571429 L4.25,4.28571429 L4.25,2.85714286 L5.66666667,2.85714286 L5.66666667,4.28571429 Z M8.5,15.7142857 L7.08333333,15.7142857 L7.08333333,14.2857143 L8.5,14.2857143 L8.5,15.7142857 Z M8.5,12.8571429 L7.08333333,12.8571429 L7.08333333,11.4285714 L8.5,11.4285714 L8.5,12.8571429 Z M8.5,10 L7.08333333,10 L7.08333333,8.57142857 L8.5,8.57142857 L8.5,10 Z M8.5,7.14285714 L7.08333333,7.14285714 L7.08333333,5.71428571 L8.5,5.71428571 L8.5,7.14285714 Z M8.5,4.28571429 L7.08333333,4.28571429 L7.08333333,2.85714286 L8.5,2.85714286 L8.5,4.28571429 Z M12.75,15.7142857 L11.3333333,15.7142857 L11.3333333,14.2857143 L12.75,14.2857143 L12.75,15.7142857 Z M12.75,12.8571429 L11.3333333,12.8571429 L11.3333333,11.4285714 L12.75,11.4285714 L12.75,12.8571429 Z M12.75,10 L11.3333333,10 L11.3333333,8.57142857 L12.75,8.57142857 L12.75,10 Z M12.75,7.14285714 L11.3333333,7.14285714 L11.3333333,5.71428571 L12.75,5.71428571 L12.75,7.14285714 Z" id="Shape"></path>
                </g>
            </g>
        </g>
    </g>
</svg>